<svg xmlns="http://www.w3.org/2000/svg" id="Layer_1" viewBox="0 0 1008.89 143.31"><defs><style>.cls-1{fill:#36e093;}.cls-2{stroke:#3d4441;stroke-miterlimit:10;}.cls-2,.cls-3{fill:#3d4441;}</style></defs><g><circle class="cls-1" cx="117.15" cy="116.89" r="17.21"></circle><circle class="cls-1" cx="83.27" cy="116.89" r="17.21"></circle><circle class="cls-1" cx="50.24" cy="116.89" r="17.21"></circle><circle class="cls-1" cx="17.21" cy="116.89" r="17.21"></circle><circle class="cls-1" cx="117.15" cy="83.66" r="17.21"></circle><circle class="cls-1" cx="50.24" cy="83.66" r="17.21"></circle><circle class="cls-1" cx="83.27" cy="50.44" r="17.21"></circle><path class="cls-1" d="M83.27,102.55c-10.41,0-18.88-8.47-18.88-18.88s8.47-18.88,18.88-18.88,18.88,8.47,18.88,18.88-8.47,18.88-18.88,18.88Zm0-34.42c-8.57,0-15.53,6.97-15.53,15.53s6.97,15.53,15.53,15.53,15.53-6.97,15.53-15.53-6.97-15.53-15.53-15.53Z"></path><circle class="cls-1" cx="117.15" cy="50.44" r="17.21"></circle><circle class="cls-1" cx="117.15" cy="17.21" r="17.21"></circle><path class="cls-3" d="M88.72,76.13c3.58,.02,6.49,2.92,6.5,6.5,0,6.57-11.96,13.07-11.96,13.07,0,0-11.96-6.6-11.96-13.07,0-3.59,2.91-6.5,6.5-6.5h0c2.2-.02,4.25,1.09,5.45,2.93,1.21-1.84,3.26-2.94,5.45-2.93Z"></path></g><g><path class="cls-3" d="M235.2,45.89c-.07,5.64-.54,10.92-1.43,15.84-.88,4.92-3.02,9.8-6.42,14.62-3.74,5.23-8.34,9.03-13.8,11.41-5.47,2.38-11.43,3.57-17.88,3.57-12.09,0-21.94-3.72-29.54-11.16-7.61-7.44-11.41-17.2-11.41-29.29s3.85-22.51,11.56-30.05c7.71-7.54,17.74-11.31,30.1-11.31,7.88,0,14.79,1.78,20.73,5.35,5.94,3.57,10.58,8.95,13.91,16.15l-18.95,7.84c-1.36-3.6-3.46-6.52-6.32-8.76-2.85-2.24-6.28-3.36-10.29-3.36-6.18,0-10.95,2.31-14.31,6.93-3.36,4.62-5.21,9.68-5.55,15.18-.07,.34-.1,.7-.1,1.07v1.68c.14,5.84,1.94,11.21,5.4,16.1s8.42,7.33,14.87,7.33c4.35,0,8.01-1.12,11-3.36,2.99-2.24,4.69-5.57,5.09-9.98h-16.3v-15.79h39.63Z"></path><path class="cls-3" d="M275.34,9.42c11.07,.07,20.92,3.79,29.54,11.16,8.62,7.37,12.94,16.86,12.94,28.47,0,12.43-3.99,22.58-11.97,30.46-7.98,7.88-18.15,11.82-30.51,11.82s-22.45-3.94-30.46-11.82c-8.01-7.88-12.02-18.03-12.02-30.46,0-11.61,4.31-21.1,12.94-28.47,8.62-7.37,18.47-11.05,29.54-11.05v-.1Zm-15.33,25.62c-4.25,4.11-6.37,8.81-6.37,14.11,0,6.59,2.12,12.06,6.37,16.4,4.24,4.35,9.35,6.52,15.33,6.52s11.09-2.18,15.33-6.53c4.24-4.36,6.37-9.84,6.37-16.44,0-5.31-2.12-10.02-6.37-14.14-4.25-4.12-9.36-6.18-15.33-6.18-5.98,.07-11.09,2.16-15.33,6.26Z"></path><path class="cls-3" d="M358.06,9.42c11.07,.07,20.92,3.79,29.54,11.16,8.62,7.37,12.94,16.86,12.94,28.47,0,12.43-3.99,22.58-11.97,30.46-7.98,7.88-18.15,11.82-30.51,11.82s-22.45-3.94-30.46-11.82c-8.01-7.88-12.02-18.03-12.02-30.46,0-11.61,4.31-21.1,12.94-28.47,8.62-7.37,18.47-11.05,29.54-11.05v-.1Zm-15.33,25.62c-4.25,4.11-6.37,8.81-6.37,14.11,0,6.59,2.12,12.06,6.37,16.4,4.24,4.35,9.35,6.52,15.33,6.52s11.09-2.18,15.33-6.53c4.24-4.36,6.37-9.84,6.37-16.44,0-5.31-2.12-10.02-6.37-14.14-4.25-4.12-9.36-6.18-15.33-6.18-5.98,.07-11.09,2.16-15.33,6.26Z"></path><path class="cls-3" d="M402.17,11.97h28.32c10.73,.07,19.92,3.8,27.56,11.21,7.64,7.4,11.46,16.5,11.46,27.3s-3.84,19.88-11.51,27.25c-7.67,7.37-16.84,11.05-27.5,11.05h-28.32V11.97Zm19.97,59.9h4.48c5.98,.07,11.16-1.62,15.54-5.05,4.38-3.44,6.57-8.9,6.57-16.39,0-6.88-2.04-12.18-6.11-15.93-4.08-3.74-9.34-5.62-15.79-5.62h-4.69v42.99Z"></path><path class="cls-3" d="M498.43,11.97h28.32c10.73,.07,19.92,3.8,27.56,11.21,7.64,7.4,11.46,16.5,11.46,27.3s-3.84,19.88-11.51,27.25c-7.67,7.37-16.84,11.05-27.5,11.05h-28.32V11.97Zm19.97,59.9h4.48c5.98,.07,11.16-1.62,15.54-5.05,4.38-3.44,6.57-8.9,6.57-16.39,0-6.88-2.04-12.18-6.11-15.93-4.08-3.74-9.34-5.62-15.79-5.62h-4.69v42.99Z"></path><path class="cls-3" d="M586.96,75.43l-5.3,13.34h-21.19l29.54-76.81h21.8l28.93,76.81h-21.29l-4.99-13.34h-27.5Zm13.96-39.73h-.2l-8.25,24.45h16.6l-8.15-24.45Z"></path><path class="cls-3" d="M663.76,88.78h-19.97V28.88h-16.5V11.97h52.97V28.88h-16.5v59.9Z"></path><path class="cls-3" d="M693.31,75.43l-5.3,13.34h-21.19l29.54-76.81h21.8l28.93,76.81h-21.29l-4.99-13.34h-27.5Zm13.96-39.73h-.2l-8.25,24.45h16.6l-8.15-24.45Z"></path><path class="cls-1" d="M821.76,41.61V11.97h19.97V88.78h-19.97v-31.48h-28.83v31.48h-19.97V11.97h19.97v29.64h28.83Z"></path><path class="cls-1" d="M913.75,11.97V55.16c0,5.03-.39,9.88-1.17,14.57-.78,4.69-3.07,8.9-6.88,12.63-2.45,2.45-5.35,4.3-8.71,5.55s-6.81,2.09-10.34,2.5c-1.09,.14-2.17,.24-3.26,.31-1.09,.07-2.14,.1-3.16,.1s-2.07-.04-3.16-.1c-1.09-.07-2.17-.17-3.26-.31-3.53-.41-6.98-1.24-10.34-2.5-3.36-1.26-6.27-3.11-8.71-5.55-3.8-3.73-6.1-7.95-6.88-12.63-.78-4.69-1.17-9.51-1.17-14.46V11.97h19.97V54.85c.07,4.62,.87,8.86,2.39,12.73s5.25,5.81,11.15,5.81,9.63-1.94,11.16-5.81c1.53-3.87,2.33-8.12,2.39-12.73V11.97h19.97Z"></path><path class="cls-1" d="M918.74,88.78V11.97h28.52c6.86,.07,12.38,1.6,16.55,4.58,4.18,2.99,6.27,8.15,6.27,15.48,0,3.46-.63,6.55-1.88,9.27-1.26,2.72-3.45,4.86-6.57,6.42v.1c5.5,.75,9.49,2.87,11.97,6.37,2.48,3.5,3.72,7.93,3.72,13.29,0,8.01-2.87,13.57-8.61,16.66-5.74,3.09-12.14,4.63-19.2,4.63h-30.76Zm19.97-46.66h2.24c.07,.07,.15,.1,.25,.1h.36c2.51-.07,4.84-.54,6.98-1.43,2.14-.88,3.21-2.89,3.21-6.01s-1.02-5.2-3.06-6.09c-2.04-.89-4.25-1.38-6.62-1.45h-3.36v14.87Zm0,31.38h2.55c.07,.07,.15,.1,.25,.1h2.9c.88,0,1.77-.03,2.65-.1,2.51-.2,4.82-.85,6.93-1.95,2.1-1.09,3.16-3.14,3.16-6.15,0-3.49-1.16-5.74-3.46-6.77-2.31-1.03-4.82-1.57-7.54-1.64h-7.44v16.5Z"></path></g><g><path class="cls-2" d="M177.64,104.49h1.27l9.05,27.07,9.18-27.07h2.45l-10.45,29.69h-2.45l-4.7-13.87-3.72-11.72-3.72,11.63-4.74,13.96h-2.45l-10.36-29.69h2.41l9.14,27.07,9.09-27.07Z"></path><path class="cls-2" d="M198.49,123.65c0-6.26,4.74-10.79,10.62-10.79s11.12,3.6,10.32,11.76h-18.82c.42,4.91,4.19,7.74,8.5,7.74,2.75,0,5.96-1.1,7.53-3.17l1.48,1.18c-2.03,2.66-5.67,4.02-9.01,4.02-5.88,0-10.62-4.1-10.62-10.74Zm19.08-.85c-.04-5.16-3.43-8.04-8.46-8.04-4.31,0-8.04,2.92-8.5,8.04h16.96Z"></path><path class="cls-2" d="M238.42,104.49v12.6c1.69-3,4.61-4.14,7.53-4.19,5.84,0,8.76,3.76,8.76,9.22v11.97h-2.03v-11.97c0-4.31-2.03-7.23-6.73-7.23-4.4,0-7.44,3.38-7.44,7.74v11.46h-2.07v-29.61h1.99Z"></path><path class="cls-2" d="M280.2,113.21v20.89h-2.07v-4.44c-2.03,3.26-5.16,4.78-8.54,4.78-5.84,0-10.62-4.4-10.62-10.79s4.78-10.7,10.62-10.7c3.38,0,6.81,1.56,8.54,4.82v-4.57h2.07Zm-19.16,10.45c0,5.25,3.81,8.75,8.54,8.75,11.63,0,11.63-17.47,0-17.47-4.74,0-8.54,3.47-8.54,8.71Z"></path><path class="cls-2" d="M287.86,113.21v3.72c1.61-2.88,4.53-4.06,7.44-4.1,5.58,0,9.43,3.43,9.43,9.22v12.05h-2.07v-12.01c0-4.74-2.92-7.28-7.44-7.23-4.31,.04-7.32,3.3-7.32,7.61v11.63h-2.07v-20.89h2.03Z"></path><path class="cls-2" d="M330.19,104.49v29.61h-2.03v-4.61c-1.73,3.17-5.16,4.95-8.71,4.95-5.84,0-10.45-3.85-10.45-10.79s4.65-10.79,10.49-10.79c3.6,0,6.98,1.52,8.67,4.91v-13.28h2.03Zm-19.16,19.16c0,5.79,3.85,8.75,8.54,8.75s8.54-3.59,8.54-8.8-3.72-8.76-8.54-8.76-8.54,2.92-8.54,8.8Z"></path><path class="cls-2" d="M338.23,104.49v29.61h-2.07v-29.61h2.07Z"></path><path class="cls-2" d="M342.84,123.65c0-6.26,4.74-10.79,10.62-10.79s11.12,3.6,10.32,11.76h-18.82c.42,4.91,4.19,7.74,8.5,7.74,2.75,0,5.96-1.1,7.53-3.17l1.48,1.18c-2.03,2.66-5.67,4.02-9.01,4.02-5.88,0-10.62-4.1-10.62-10.74Zm19.08-.85c-.04-5.16-3.43-8.04-8.46-8.04-4.31,0-8.04,2.92-8.5,8.04h16.96Z"></path><path class="cls-2" d="M385.55,106.9v6.3h7.11v1.73h-7.11v12.73c0,2.83,.59,4.82,3.85,4.82,1.02,0,2.16-.34,3.21-.85l.72,1.69c-1.31,.63-2.62,1.06-3.93,1.06-4.44,0-5.88-2.62-5.88-6.72v-12.73h-4.44v-1.73h4.44v-6.09l2.03-.21Z"></path><path class="cls-2" d="M399.43,104.49v12.6c1.69-3,4.61-4.14,7.53-4.19,5.84,0,8.76,3.76,8.76,9.22v11.97h-2.03v-11.97c0-4.31-2.03-7.23-6.73-7.23-4.4,0-7.44,3.38-7.44,7.74v11.46h-2.07v-29.61h1.99Z"></path><path class="cls-2" d="M419.94,123.65c0-6.26,4.74-10.79,10.62-10.79s11.12,3.6,10.32,11.76h-18.82c.42,4.91,4.19,7.74,8.5,7.74,2.75,0,5.96-1.1,7.53-3.17l1.48,1.18c-2.03,2.66-5.67,4.02-9.01,4.02-5.88,0-10.62-4.1-10.62-10.74Zm19.08-.85c-.04-5.16-3.43-8.04-8.46-8.04-4.31,0-8.04,2.92-8.5,8.04h16.96Z"></path><path class="cls-2" d="M477.92,104.49v29.61h-2.03v-4.61c-1.73,3.17-5.16,4.95-8.71,4.95-5.84,0-10.45-3.85-10.45-10.79s4.65-10.79,10.49-10.79c3.6,0,6.98,1.52,8.67,4.91v-13.28h2.03Zm-19.16,19.16c0,5.79,3.85,8.75,8.54,8.75s8.54-3.59,8.54-8.8-3.72-8.76-8.54-8.76-8.54,2.92-8.54,8.8Z"></path><path class="cls-2" d="M503.98,113.21v20.89h-2.07v-4.44c-2.03,3.26-5.16,4.78-8.54,4.78-5.84,0-10.62-4.4-10.62-10.79s4.78-10.7,10.62-10.7c3.38,0,6.81,1.56,8.54,4.82v-4.57h2.07Zm-19.16,10.45c0,5.25,3.81,8.75,8.54,8.75,11.63,0,11.63-17.47,0-17.47-4.74,0-8.54,3.47-8.54,8.71Z"></path><path class="cls-2" d="M513.49,106.9v6.3h7.11v1.73h-7.11v12.73c0,2.83,.59,4.82,3.85,4.82,1.02,0,2.16-.34,3.21-.85l.72,1.69c-1.31,.63-2.62,1.06-3.93,1.06-4.44,0-5.88-2.62-5.88-6.72v-12.73h-4.44v-1.73h4.44v-6.09l2.03-.21Z"></path><path class="cls-2" d="M545.47,113.21v20.89h-2.07v-4.44c-2.03,3.26-5.16,4.78-8.54,4.78-5.84,0-10.62-4.4-10.62-10.79s4.78-10.7,10.62-10.7c3.38,0,6.81,1.56,8.54,4.82v-4.57h2.07Zm-19.16,10.45c0,5.25,3.81,8.75,8.54,8.75,11.63,0,11.63-17.47,0-17.47-4.74,0-8.54,3.47-8.54,8.71Z"></path><path class="cls-2" d="M554.01,132.83c0,.25-.04,.46-.13,.72l-1.69,4.31h-1.82l1.31-3.51c-.55-.21-1.01-.72-1.01-1.52,0-2.2,3.34-2.2,3.34,0Z"></path><path class="cls-2" d="M588.94,113.21l-12.73,29.61h-2.2l3.85-8.97-8.38-20.64h2.24l4.86,12.35,2.45,6.05,2.41-6.09,5.24-12.31h2.24Z"></path><path class="cls-2" d="M591.99,123.7c0-6.64,4.74-10.87,10.62-10.87s10.62,4.23,10.62,10.87-4.74,10.7-10.62,10.7-10.62-4.06-10.62-10.7Zm19.2,0c0-5.41-3.85-8.92-8.59-8.92s-8.59,3.51-8.59,8.92,3.85,8.67,8.59,8.67,8.59-3.26,8.59-8.67Z"></path><path class="cls-2" d="M634.83,134.1v-3.76c-1.61,2.88-4.53,4.06-7.44,4.1-5.58,0-9.43-3.43-9.43-9.22v-12.05h2.07v12.01c0,4.74,2.92,7.28,7.44,7.23,4.31-.04,7.32-3.3,7.32-7.61v-11.63h2.07v20.94h-2.03Z"></path><path class="cls-2" d="M655.94,104.49v12.6c1.69-3,4.61-4.14,7.53-4.19,5.84,0,8.75,3.76,8.75,9.22v11.97h-2.03v-11.97c0-4.31-2.03-7.23-6.72-7.23-4.4,0-7.44,3.38-7.44,7.74v11.46h-2.07v-29.61h1.99Z"></path><path class="cls-2" d="M697.72,113.21v20.89h-2.07v-4.44c-2.03,3.26-5.16,4.78-8.54,4.78-5.84,0-10.62-4.4-10.62-10.79s4.78-10.7,10.62-10.7c3.38,0,6.81,1.56,8.54,4.82v-4.57h2.07Zm-19.16,10.45c0,5.25,3.81,8.75,8.54,8.75,11.63,0,11.63-17.47,0-17.47-4.74,0-8.54,3.47-8.54,8.71Z"></path><path class="cls-2" d="M705.38,113.21v3.72c1.61-2.88,4.53-4.06,7.44-4.1,5.58,0,9.43,3.43,9.43,9.22v12.05h-2.07v-12.01c0-4.74-2.92-7.28-7.44-7.23-4.31,.04-7.32,3.3-7.32,7.61v11.63h-2.07v-20.89h2.03Z"></path><path class="cls-2" d="M747.71,104.49v29.61h-2.03v-4.61c-1.73,3.17-5.16,4.95-8.71,4.95-5.84,0-10.45-3.85-10.45-10.79s4.65-10.79,10.49-10.79c3.6,0,6.98,1.52,8.67,4.91v-13.28h2.03Zm-19.16,19.16c0,5.79,3.85,8.75,8.54,8.75s8.54-3.59,8.54-8.8-3.72-8.76-8.54-8.76-8.54,2.92-8.54,8.8Z"></path><path class="cls-2" d="M755.75,104.49v29.61h-2.07v-29.61h2.07Z"></path><path class="cls-2" d="M760.36,123.65c0-6.26,4.74-10.79,10.62-10.79s11.12,3.6,10.32,11.76h-18.82c.42,4.91,4.19,7.74,8.5,7.74,2.75,0,5.96-1.1,7.53-3.17l1.48,1.18c-2.03,2.66-5.67,4.02-9.01,4.02-5.88,0-10.62-4.1-10.62-10.74Zm19.08-.85c-.04-5.16-3.43-8.04-8.46-8.04-4.31,0-8.04,2.92-8.5,8.04h16.96Z"></path><path class="cls-2" d="M803.07,106.9v6.3h7.11v1.73h-7.11v12.73c0,2.83,.59,4.82,3.85,4.82,1.01,0,2.16-.34,3.21-.85l.72,1.69c-1.31,.63-2.62,1.06-3.93,1.06-4.44,0-5.88-2.62-5.88-6.72v-12.73h-4.44v-1.73h4.44v-6.09l2.03-.21Z"></path><path class="cls-2" d="M816.95,104.49v12.6c1.69-3,4.61-4.14,7.53-4.19,5.84,0,8.76,3.76,8.76,9.22v11.97h-2.03v-11.97c0-4.31-2.03-7.23-6.73-7.23-4.4,0-7.44,3.38-7.44,7.74v11.46h-2.07v-29.61h1.99Z"></path><path class="cls-2" d="M837.46,123.65c0-6.26,4.74-10.79,10.62-10.79s11.12,3.6,10.32,11.76h-18.82c.42,4.91,4.19,7.74,8.5,7.74,2.75,0,5.96-1.1,7.53-3.17l1.48,1.18c-2.03,2.66-5.67,4.02-9.01,4.02-5.88,0-10.62-4.1-10.62-10.74Zm19.08-.85c-.04-5.16-3.43-8.04-8.46-8.04-4.31,0-8.04,2.92-8.5,8.04h16.96Z"></path><path class="cls-2" d="M878.14,106.4c0,2.2-3.34,2.2-3.34,0s3.34-2.2,3.34,0Zm-2.75,6.73v20.98h2.07v-20.98h-2.07Z"></path><path class="cls-2" d="M914.35,134.1v-12.52c0-4.02-2.71-6.85-6.68-6.85s-6.73,2.96-6.73,6.98v12.39h-2.07v-12.39c0-4.02-2.75-6.94-6.73-6.94s-6.68,2.92-6.68,6.94v12.39h-2.07v-20.89h1.95l.04,3.47c1.44-2.75,4.1-3.89,6.81-3.89,3.17,0,6.51,1.44,7.74,5.16,1.27-3.43,4.53-5.16,7.74-5.16,5.12,0,8.75,3.59,8.75,8.8v12.52h-2.07Z"></path><path class="cls-2" d="M921.83,142.81v-29.61h2.03v4.95c1.65-3.17,4.99-5.25,9.05-5.25,5.67,.21,10.15,4.02,10.15,10.74s-4.74,10.83-10.62,10.83c-3.55,0-6.85-1.73-8.63-5.2v13.54h-1.99Zm19.16-19.16c0-5.88-3.81-8.76-8.54-8.76s-8.46,3.68-8.46,8.8,3.68,8.8,8.46,8.8,8.54-2.96,8.54-8.84Z"></path><path class="cls-2" d="M968.23,113.21v20.89h-2.07v-4.44c-2.03,3.26-5.16,4.78-8.54,4.78-5.84,0-10.62-4.4-10.62-10.79s4.78-10.7,10.62-10.7c3.38,0,6.81,1.56,8.54,4.82v-4.57h2.07Zm-19.16,10.45c0,5.25,3.81,8.75,8.54,8.75,11.63,0,11.63-17.47,0-17.47-4.74,0-8.54,3.47-8.54,8.71Z"></path><path class="cls-2" d="M991.45,131.18c-2.12,2.12-4.86,3.13-7.61,3.13-5.88,0-10.74-4.06-10.74-10.66s4.7-10.66,10.74-10.66c2.75,0,5.5,1.06,7.61,3.13l-1.35,1.31c-1.69-1.69-4.02-2.5-6.26-2.5-4.74,0-8.71,3.09-8.71,8.71s3.98,8.71,8.71,8.71c2.24,0,4.53-.89,6.22-2.58l1.4,1.4Z"></path><path class="cls-2" d="M1000.46,106.9v6.3h7.11v1.73h-7.11v12.73c0,2.83,.59,4.82,3.85,4.82,1.01,0,2.16-.34,3.21-.85l.72,1.69c-1.31,.63-2.62,1.06-3.93,1.06-4.44,0-5.88-2.62-5.88-6.72v-12.73h-4.44v-1.73h4.44v-6.09l2.03-.21Z"></path></g></svg>